<?xml version="1.0" encoding="utf-8"?>
<!-- Generator: Adobe Illustrator 23.0.3, SVG Export Plug-In . SVG Version: 6.00 Build 0)  -->
<svg version="1.1" xmlns="http://www.w3.org/2000/svg" xmlns:xlink="http://www.w3.org/1999/xlink" x="0px" y="0px"
	 viewBox="0 0 100 100" style="enable-background:new 0 0 100 100;" xml:space="preserve">
<style type="text/css">
	.st0{display:none;}
	.st1{display:inline;}
</style>
<g id="Layer_1" class="st0">
	<g class="st1">
		<path d="M73.65,12.6h-48.1c-0.41,0-0.74,0.32-0.75,0.73c0,0.04,0,0.08,0.01,0.11v69.49c0,0.43,0.32,0.79,0.74,0.85h48.1
			c0.43-0.05,0.74-0.42,0.74-0.85V13.45c0.06-0.41-0.22-0.78-0.63-0.84C73.72,12.6,73.69,12.6,73.65,12.6z M26.4,22.56h46.4v53.71
			H26.4V22.56z M72.8,14.29v6.57H26.4v-6.57H72.8z M26.4,82.09v-4.13h46.4v4.13H26.4z"/>
		<path d="M18.98,21.71h-7.42c-0.47,0-0.85-0.38-0.85-0.85c0-0.47,0.38-0.85,0.85-0.85h7.42c0.47,0,0.85,0.38,0.85,0.85
			C19.83,21.33,19.45,21.71,18.98,21.71z"/>
		<path d="M18.98,43.21h-7.42c-0.47,0-0.85-0.38-0.85-0.85c0-0.47,0.38-0.85,0.85-0.85h7.42c0.47,0,0.85,0.38,0.85,0.85
			C19.83,42.84,19.45,43.21,18.98,43.21z"/>
		<path d="M18.98,34.1h-5.83c-0.47,0-0.85-0.38-0.85-0.85c0.05-0.45,0.4-0.8,0.85-0.85h5.83c0.45,0.05,0.8,0.4,0.85,0.85
			C19.83,33.72,19.45,34.1,18.98,34.1z"/>
		<path d="M18.98,37.39h-0.85c-0.47,0-0.85-0.38-0.85-0.85c0.05-0.43,0.42-0.74,0.85-0.74h0.85c0.43,0,0.79,0.32,0.85,0.74
			C19.83,37.01,19.45,37.39,18.98,37.39z"/>
		<path d="M18.98,27.43H4.05c-0.43,0-0.79-0.32-0.85-0.74c0-0.47,0.38-0.85,0.85-0.85h14.94c0.47,0,0.85,0.38,0.85,0.85
			C19.78,27.11,19.41,27.43,18.98,27.43z"/>
		<path d="M18.98,49.04H15.7c-0.47,0-0.85-0.38-0.85-0.85c-0.06-0.4,0.21-0.78,0.62-0.85c0.08-0.01,0.15-0.01,0.23,0h3.28
			c0.47,0,0.85,0.38,0.85,0.85C19.78,48.64,19.43,48.99,18.98,49.04z"/>
		<circle cx="29.79" cy="17.58" r="0.85"/>
		<circle cx="33.07" cy="17.58" r="0.85"/>
		<circle cx="36.36" cy="17.58" r="0.85"/>
		<path d="M14.85,37.39h-0.85c-0.47,0-0.85-0.38-0.85-0.85c0.05-0.43,0.42-0.74,0.85-0.74h0.85c0.43,0,0.79,0.32,0.85,0.74
			C15.7,37.01,15.32,37.39,14.85,37.39z"/>
		<path d="M9.87,37.39H9.03c-0.47,0-0.85-0.38-0.85-0.85c0.05-0.43,0.42-0.74,0.85-0.74h0.85c0.43,0,0.79,0.32,0.85,0.74
			C10.72,37.01,10.34,37.39,9.87,37.39z"/>
		<path d="M18.98,30.82h-2.44c-0.47,0-0.85-0.38-0.85-0.85c0-0.47,0.38-0.85,0.85-0.85c0,0,0,0,0,0h2.44c0.47,0,0.85,0.38,0.85,0.85
			C19.83,30.44,19.45,30.82,18.98,30.82z"/>
		<path d="M14.01,30.82h-0.85c-0.47,0-0.85-0.38-0.85-0.85c0-0.47,0.38-0.85,0.85-0.85h0.85c0.47,0,0.85,0.38,0.85,0.85
			C14.85,30.44,14.48,30.82,14.01,30.82C14.01,30.82,14.01,30.82,14.01,30.82z"/>
		<path d="M10.72,30.82H8.18c-0.47,0-0.85-0.38-0.85-0.85c0-0.47,0.38-0.85,0.85-0.85h2.54c0.47,0,0.85,0.38,0.85,0.85
			C11.57,30.44,11.19,30.82,10.72,30.82z"/>
		<path d="M87.63,46.5h-7.42c-0.47,0-0.85-0.38-0.85-0.85c0,0,0,0,0,0c0.05-0.43,0.42-0.74,0.85-0.74h7.42
			c0.41-0.06,0.78,0.22,0.84,0.63c0.01,0.04,0.01,0.08,0.01,0.11c0.06,0.4-0.21,0.78-0.62,0.85C87.79,46.51,87.71,46.51,87.63,46.5z
			"/>
		<path d="M87.63,68.85h-7.42c-0.47,0-0.85-0.38-0.85-0.85v0c0.05-0.43,0.42-0.74,0.85-0.74h7.42c0.41-0.06,0.78,0.22,0.84,0.63
			c0.01,0.04,0.01,0.08,0.01,0.11c0.06,0.4-0.21,0.78-0.62,0.85C87.79,68.86,87.71,68.86,87.63,68.85z"/>
		<path d="M86.04,58.89h-5.83c-0.43,0-0.79-0.32-0.85-0.74c0-0.47,0.38-0.85,0.85-0.85l0,0h5.83c0.47,0,0.85,0.38,0.85,0.85
			c0,0,0,0,0,0C86.84,58.58,86.47,58.9,86.04,58.89z"/>
		<path d="M81.06,62.28h-0.85c-0.45-0.05-0.8-0.4-0.85-0.85c0-0.47,0.38-0.85,0.85-0.85l0,0h0.85c0.47,0,0.85,0.38,0.85,0.85
			c0,0,0,0,0,0C81.86,61.88,81.51,62.24,81.06,62.28z"/>
		<path d="M95.15,52.33H80.22c-0.47,0-0.85-0.38-0.85-0.85c0-0.47,0.38-0.85,0.85-0.85h14.94c0.47,0,0.85,0.38,0.85,0.85
			C96,51.95,95.62,52.32,95.15,52.33z"/>
		<path d="M83.5,74.68h-3.28c-0.47,0-0.85-0.38-0.85-0.85c0-0.47,0.38-0.85,0.85-0.85c0,0,0,0,0,0h3.28c0.47,0,0.85,0.38,0.85,0.85
			C84.35,74.3,83.97,74.68,83.5,74.68z"/>
		<path d="M86.89,62.28h-2.54c-0.45-0.05-0.8-0.4-0.85-0.85c0-0.47,0.38-0.85,0.85-0.85l0,0h2.54c0.41,0,0.74,0.32,0.75,0.73
			c0,0.04,0,0.08-0.01,0.11C87.64,61.87,87.32,62.23,86.89,62.28z"/>
		<path d="M90.17,62.28h-0.85c-0.45-0.05-0.8-0.4-0.85-0.85c0-0.47,0.38-0.85,0.85-0.85l0,0h0.85c0.47,0,0.85,0.38,0.85,0.85
			c0,0,0,0,0,0C90.97,61.88,90.62,62.24,90.17,62.28z"/>
		<path d="M81.06,55.61h-0.85c-0.47,0-0.85-0.38-0.85-0.85c0,0,0,0,0,0c0.05-0.45,0.4-0.8,0.85-0.85h0.85
			c0.45,0.05,0.8,0.4,0.85,0.85C81.91,55.23,81.53,55.61,81.06,55.61L81.06,55.61z"/>
		<path d="M86.89,55.61h-2.54c-0.47,0-0.85-0.38-0.85-0.85c0,0,0,0,0,0c0.05-0.45,0.4-0.8,0.85-0.85h2.54
			c0.43,0.05,0.74,0.42,0.74,0.85c0.06,0.41-0.22,0.78-0.63,0.84C86.97,55.61,86.93,55.61,86.89,55.61z"/>
		<path d="M91.76,55.61h-2.44c-0.47,0-0.85-0.38-0.85-0.85c0,0,0,0,0,0c0.05-0.45,0.4-0.8,0.85-0.85h2.44
			c0.47,0,0.85,0.38,0.85,0.85c0,0,0,0,0,0c0.06,0.4-0.21,0.78-0.62,0.85C91.92,55.62,91.84,55.62,91.76,55.61z"/>
		<path d="M46.32,60.59H46c-0.4-0.19-0.62-0.63-0.53-1.06l6.67-19.92c0.15-0.43,0.62-0.67,1.06-0.53c0.4,0.19,0.62,0.63,0.53,1.06
			l-6.67,19.92C46.93,60.36,46.65,60.57,46.32,60.59z"/>
		<path d="M58.71,55.61l-0.64-0.21c-0.31-0.33-0.31-0.84,0-1.17l5.3-5.19l-5.3-5.3c-0.4-0.24-0.52-0.77-0.28-1.17
			c0.24-0.4,0.77-0.52,1.17-0.28c0.11,0.07,0.21,0.17,0.28,0.28l5.83,5.83c0.31,0.33,0.31,0.84,0,1.17l-5.83,5.83L58.71,55.61z"/>
		<path d="M40.49,55.61l-0.53-0.21l-5.83-5.83c-0.31-0.33-0.31-0.84,0-1.17l5.83-5.83c0.24-0.4,0.77-0.52,1.17-0.28
			s0.52,0.77,0.28,1.17c-0.07,0.11-0.17,0.21-0.28,0.28l-5.3,5.3l5.3,5.19c0.31,0.33,0.31,0.84,0,1.17L40.49,55.61z"/>
		<path d="M82.55,41.94c-1.29,0-2.33-1.04-2.33-2.33c0-0.04,0-0.07,0-0.11v-2.54c0-0.53-0.21-0.95-0.74-0.95v-1.06
			c0.53,0,0.74-0.53,0.74-1.06v-2.54c0-1.29,1.04-2.33,2.33-2.33h0.85v1.27h-0.85c-0.53,0-0.96,0.42-0.96,0.95
			c0,0.04,0,0.07,0.01,0.11v2.75c0.06,0.54-0.19,1.07-0.64,1.38c0.45,0.25,0.7,0.76,0.64,1.27v2.75c-0.06,0.58,0.36,1.1,0.94,1.16
			c0,0,0.01,0,0.01,0h0.85v1.27L82.55,41.94z"/>
		<path d="M88.59,41.94v-1.27h0.85c0.58-0.06,1.01-0.57,0.95-1.15c0,0,0-0.01,0-0.01v-2.75c-0.09-0.55,0.22-1.08,0.74-1.27
			c-0.51-0.26-0.8-0.81-0.74-1.38v-2.75c0.06-0.52-0.32-0.99-0.84-1.05c-0.04,0-0.07-0.01-0.11-0.01h-0.85v-1.27h0.85
			c1.23-0.06,2.27,0.89,2.33,2.11c0,0.07,0,0.14,0,0.22v2.54c0,0.53,0.21,1.06,0.74,1.06v1.06c-0.53,0-0.74,0.42-0.74,0.95v2.54
			c0.06,1.29-0.94,2.38-2.22,2.43c-0.04,0-0.07,0-0.11,0L88.59,41.94z"/>
	</g>
	<text transform="matrix(1 0 0 1 -3 112.3885)" class="st1" style="font-family:'HelveticaNeue-Bold'; font-size:5px;">Created by Beautifulife Studio</text>
	<text transform="matrix(1 0 0 1 -3 117.3885)" class="st1" style="font-family:'HelveticaNeue-Bold'; font-size:5px;">from the Noun Project</text>
</g>
<g id="Layer_2">
	<g>
		<g>
			<path d="M71.26,33.07c1.43,0,2.6-1.17,2.6-2.6s-1.17-2.6-2.6-2.6s-2.6,1.17-2.6,2.6S69.83,33.07,71.26,33.07z M71.26,29.08
				c0.77,0,1.4,0.63,1.4,1.4c0,0.77-0.63,1.4-1.4,1.4s-1.4-0.63-1.4-1.4C69.86,29.71,70.49,29.08,71.26,29.08z"/>
		</g>
		<g>
			<path d="M64.39,33.07c1.43,0,2.6-1.17,2.6-2.6s-1.17-2.6-2.6-2.6s-2.6,1.17-2.6,2.6S62.95,33.07,64.39,33.07z M64.39,29.08
				c0.77,0,1.4,0.63,1.4,1.4c0,0.77-0.63,1.4-1.4,1.4s-1.4-0.63-1.4-1.4C62.99,29.71,63.61,29.08,64.39,29.08z"/>
		</g>
		<g>
			<path d="M37.63,32.8h21.52c0.33,0,0.6-0.27,0.6-0.6c0-0.33-0.27-0.6-0.6-0.6H37.63c-0.33,0-0.6,0.27-0.6,0.6
				C37.03,32.53,37.29,32.8,37.63,32.8z"/>
		</g>
		<g>
			<path d="M37.7,29.35h21.52c0.33,0,0.6-0.27,0.6-0.6s-0.27-0.6-0.6-0.6H37.7c-0.33,0-0.6,0.27-0.6,0.6S37.37,29.35,37.7,29.35z"/>
		</g>
		<g>
			<path d="M34.16,33.07c0.33,0,0.6-0.27,0.6-0.6v-3.72c0-0.33-0.27-0.6-0.6-0.6c-0.33,0-0.6,0.27-0.6,0.6v3.72
				C33.56,32.81,33.83,33.07,34.16,33.07z"/>
		</g>
		<g>
			<path d="M30.47,33.07c0.33,0,0.6-0.27,0.6-0.6v-3.72c0-0.33-0.27-0.6-0.6-0.6s-0.6,0.27-0.6,0.6v3.72
				C29.87,32.81,30.14,33.07,30.47,33.07z"/>
		</g>
		<g>
			<path d="M26.79,28.15c-0.33,0-0.6,0.27-0.6,0.6v3.72c0,0.33,0.27,0.6,0.6,0.6c0.33,0,0.6-0.27,0.6-0.6v-3.72
				C27.39,28.42,27.12,28.15,26.79,28.15z"/>
		</g>
		<g>
			<path d="M68.66,45.36c0,1.43,1.17,2.6,2.6,2.6s2.6-1.17,2.6-2.6s-1.17-2.6-2.6-2.6S68.66,43.93,68.66,45.36z M71.26,46.76
				c-0.77,0-1.4-0.63-1.4-1.4c0-0.77,0.63-1.4,1.4-1.4C73.11,43.96,73.11,46.76,71.26,46.76z"/>
		</g>
		<g>
			<path d="M64.39,42.76c-1.43,0-2.6,1.17-2.6,2.6s1.17,2.6,2.6,2.6s2.6-1.17,2.6-2.6S65.82,42.76,64.39,42.76z M64.39,46.76
				c-0.77,0-1.4-0.63-1.4-1.4c0-0.77,0.63-1.4,1.4-1.4s1.4,0.63,1.4,1.4C65.78,46.13,65.16,46.76,64.39,46.76z"/>
		</g>
		<g>
			<path d="M59.15,46.49H37.63c-0.33,0-0.6,0.27-0.6,0.6c0,0.33,0.27,0.6,0.6,0.6h21.52c0.33,0,0.6-0.27,0.6-0.6
				C59.75,46.75,59.48,46.49,59.15,46.49z"/>
		</g>
		<g>
			<path d="M59.22,43.04H37.7c-0.33,0-0.6,0.27-0.6,0.6s0.27,0.6,0.6,0.6h21.52c0.33,0,0.6-0.27,0.6-0.6S59.55,43.04,59.22,43.04z"
				/>
		</g>
		<g>
			<path d="M34.16,43.04c-0.33,0-0.6,0.27-0.6,0.6v3.72c0,0.33,0.27,0.6,0.6,0.6c0.33,0,0.6-0.27,0.6-0.6v-3.72
				C34.76,43.31,34.49,43.04,34.16,43.04z"/>
		</g>
		<g>
			<path d="M30.47,43.04c-0.33,0-0.6,0.27-0.6,0.6v3.72c0,0.33,0.27,0.6,0.6,0.6s0.6-0.27,0.6-0.6v-3.72
				C31.07,43.31,30.81,43.04,30.47,43.04z"/>
		</g>
		<g>
			<path d="M26.79,43.04c-0.33,0-0.6,0.27-0.6,0.6v3.72c0,0.33,0.27,0.6,0.6,0.6c0.33,0,0.6-0.27,0.6-0.6v-3.72
				C27.39,43.31,27.12,43.04,26.79,43.04z"/>
		</g>
		<g>
			<path d="M68.66,60.25c0,1.43,1.17,2.6,2.6,2.6s2.6-1.17,2.6-2.6s-1.17-2.6-2.6-2.6S68.66,58.81,68.66,60.25z M72.66,60.25
				c0,0.77-0.63,1.4-1.4,1.4s-1.4-0.63-1.4-1.4c0-0.77,0.63-1.4,1.4-1.4S72.66,59.48,72.66,60.25z"/>
		</g>
		<g>
			<path d="M64.39,57.65c-1.43,0-2.6,1.17-2.6,2.6s1.17,2.6,2.6,2.6s2.6-1.17,2.6-2.6S65.82,57.65,64.39,57.65z M64.39,61.64
				c-0.77,0-1.4-0.63-1.4-1.4c0-0.77,0.63-1.4,1.4-1.4s1.4,0.63,1.4,1.4C65.78,61.02,65.16,61.64,64.39,61.64z"/>
		</g>
		<g>
			<path d="M59.15,61.37H37.63c-0.33,0-0.6,0.27-0.6,0.6c0,0.33,0.27,0.6,0.6,0.6h21.52c0.33,0,0.6-0.27,0.6-0.6
				C59.75,61.64,59.48,61.37,59.15,61.37z"/>
		</g>
		<g>
			<path d="M59.22,57.92H37.7c-0.33,0-0.6,0.27-0.6,0.6c0,0.33,0.27,0.6,0.6,0.6h21.52c0.33,0,0.6-0.27,0.6-0.6
				C59.82,58.19,59.55,57.92,59.22,57.92z"/>
		</g>
		<g>
			<path d="M34.16,57.92c-0.33,0-0.6,0.27-0.6,0.6v3.72c0,0.33,0.27,0.6,0.6,0.6c0.33,0,0.6-0.27,0.6-0.6v-3.72
				C34.76,58.19,34.49,57.92,34.16,57.92z"/>
		</g>
		<g>
			<path d="M30.47,57.92c-0.33,0-0.6,0.27-0.6,0.6v3.72c0,0.33,0.27,0.6,0.6,0.6s0.6-0.27,0.6-0.6v-3.72
				C31.07,58.19,30.81,57.92,30.47,57.92z"/>
		</g>
		<g>
			<path d="M26.79,57.92c-0.33,0-0.6,0.27-0.6,0.6v3.72c0,0.33,0.27,0.6,0.6,0.6c0.33,0,0.6-0.27,0.6-0.6v-3.72
				C27.39,58.19,27.12,57.92,26.79,57.92z"/>
		</g>
		<g>
			<path d="M78.46,11.07c-0.33,0-0.6,0.27-0.6,0.6v0.35c0,0.33,0.27,0.6,0.6,0.6s0.6-0.27,0.6-0.6v-0.35
				C79.06,11.33,78.79,11.07,78.46,11.07z"/>
		</g>
		<g>
			<path d="M81.24,13.17c-0.33,0-0.6,0.27-0.6,0.6v0.35c0,0.33,0.27,0.6,0.6,0.6s0.6-0.27,0.6-0.6v-0.35
				C81.84,13.44,81.57,13.17,81.24,13.17z"/>
		</g>
		<g>
			<path d="M21.59,12.62c0.33,0,0.6-0.27,0.6-0.6v-0.35c0-0.33-0.27-0.6-0.6-0.6s-0.6,0.27-0.6,0.6v0.35
				C20.99,12.35,21.26,12.62,21.59,12.62z"/>
		</g>
		<g>
			<path d="M18.8,14.72c0.33,0,0.6-0.27,0.6-0.6v-0.35c0-0.33-0.27-0.6-0.6-0.6s-0.6,0.27-0.6,0.6v0.35
				C18.2,14.46,18.47,14.72,18.8,14.72z"/>
		</g>
		<g>
			<path d="M78.46,78.53c-0.33,0-0.6,0.27-0.6,0.6v0.35c0,0.33,0.27,0.6,0.6,0.6s0.6-0.27,0.6-0.6v-0.35
				C79.06,78.79,78.79,78.53,78.46,78.53z"/>
		</g>
		<g>
			<path d="M81.24,76.42c-0.33,0-0.6,0.27-0.6,0.6v0.35c0,0.33,0.27,0.6,0.6,0.6s0.6-0.27,0.6-0.6v-0.35
				C81.84,76.69,81.57,76.42,81.24,76.42z"/>
		</g>
		<g>
			<path d="M21.59,80.08c0.33,0,0.6-0.27,0.6-0.6v-0.35c0-0.33-0.27-0.6-0.6-0.6s-0.6,0.27-0.6,0.6v0.35
				C20.99,79.81,21.26,80.08,21.59,80.08z"/>
		</g>
		<g>
			<path d="M18.8,77.97c0.33,0,0.6-0.27,0.6-0.6v-0.35c0-0.33-0.27-0.6-0.6-0.6s-0.6,0.27-0.6,0.6v0.35
				C18.2,77.7,18.47,77.97,18.8,77.97z"/>
		</g>
		<g>
			<path d="M85.71,55.87v-7.75c0-0.33-0.27-0.6-0.6-0.6H76.8v-4.31h8.31c0.33,0,0.6-0.27,0.6-0.6v-7.75
				c1.86-0.29,3.29-1.9,3.29-3.84c0-2.15-1.75-3.89-3.89-3.89c-2.15,0-3.89,1.75-3.89,3.89c0,1.94,1.43,3.55,3.29,3.84v7.15H76.8
				c-0.13-1.37,0.37-2.8-0.6-2.8h-3.81v-2.58h3.81c0.33,0,0.6-0.27,0.6-0.6V24.92c0-0.33-0.27-0.6-0.6-0.6H58.45V13.5h17.22v2.98
				c0,0.33,0.27,0.6,0.6,0.6h7.16c0.33,0,0.6-0.27,0.6-0.6V9.31c0-0.33-0.27-0.6-0.6-0.6h-7.16c-0.33,0-0.6,0.27-0.6,0.6v2.98H57.85
				c-0.33,0-0.6,0.27-0.6,0.6v11.43H42.8V12.9c0-0.33-0.27-0.6-0.6-0.6H24.37V9.31c0-0.33-0.27-0.6-0.6-0.6h-7.16
				c-0.33,0-0.6,0.27-0.6,0.6v7.16c0,0.33,0.27,0.6,0.6,0.6h7.16c0.33,0,0.6-0.27,0.6-0.6V13.5H41.6v10.83H23.85
				c-0.33,0-0.6,0.27-0.6,0.6v11.11c0,0.33,0.27,0.6,0.6,0.6h3.81v2.58h-3.81c-0.33,0-0.6,0.27-0.6,0.6v2.2h-7.75v-7.15
				c1.86-0.29,3.29-1.9,3.29-3.84c0-2.15-1.75-3.89-3.89-3.89S11,28.87,11,31.01c0,1.94,1.43,3.55,3.29,3.84
				c0.22,6.99-0.49,8.35,0.6,8.35h8.35v4.31c-7.6,0.23-8.95-0.5-8.95,0.6v7.75c-1.86,0.29-3.29,1.9-3.29,3.84
				c0,2.15,1.75,3.89,3.89,3.89s3.89-1.75,3.89-3.89c0-1.94-1.43-3.55-3.29-3.84v-7.15h7.75v2.2c0,0.33,0.27,0.6,0.6,0.6h3.81v2.58
				h-3.81c-0.33,0-0.6,0.27-0.6,0.6V65.8c0,0.33,0.27,0.6,0.6,0.6H41.6v11.25H24.37v-2.98c0-0.33-0.27-0.6-0.6-0.6h-7.16
				c-0.33,0-0.6,0.27-0.6,0.6v7.16c0,0.33,0.27,0.6,0.6,0.6h7.16c0.33,0,0.6-0.27,0.6-0.6v-2.98H42.2c0.33,0,0.6-0.27,0.6-0.6V66.4
				h14.45v11.85c0,0.33,0.27,0.6,0.6,0.6h17.82v2.98c0,0.33,0.27,0.6,0.6,0.6h7.16c0.33,0,0.6-0.27,0.6-0.6v-7.16
				c0-0.33-0.27-0.6-0.6-0.6h-7.16c-0.33,0-0.6,0.27-0.6,0.6v2.98H58.45V66.4H76.2c0.33,0,0.6-0.27,0.6-0.6
				c-0.24-10.35,0.54-11.71-0.6-11.71h-3.81v-2.58h3.81c0.98,0,0.47-1.48,0.6-2.8h7.71v7.15c-1.86,0.29-3.29,1.9-3.29,3.84
				c0,2.15,1.75,3.89,3.89,3.89c2.15,0,3.89-1.75,3.89-3.89C89,57.77,87.57,56.16,85.71,55.87z M82.42,31.01
				c0-1.48,1.21-2.69,2.69-2.69c1.48,0,2.69,1.21,2.69,2.69s-1.21,2.69-2.69,2.69C83.62,33.71,82.42,32.5,82.42,31.01z M76.87,9.91
				h5.96v5.96h-5.96V9.91z M23.17,15.88h-5.96V9.91h5.96V15.88z M12.2,31.01c0-1.48,1.21-2.69,2.69-2.69s2.69,1.21,2.69,2.69
				s-1.21,2.69-2.69,2.69S12.2,32.5,12.2,31.01z M17.58,59.71c0,1.48-1.21,2.69-2.69,2.69s-2.69-1.21-2.69-2.69s1.21-2.69,2.69-2.69
				S17.58,58.23,17.58,59.71z M23.17,81.23h-5.96v-5.96h5.96V81.23z M76.87,75.27h5.96v5.96h-5.96V75.27z M24.45,25.52H75.6v9.91
				H24.45V25.52z M28.86,36.63h42.33v2.58H28.86V36.63z M75.6,65.2H24.45v-9.91H75.6V65.2z M71.19,54.09H28.86v-2.58h42.33V54.09z
				 M75.6,50.32H24.45v-9.91H75.6V50.32z M85.11,62.4c-1.48,0-2.69-1.21-2.69-2.69s1.21-2.69,2.69-2.69c1.48,0,2.69,1.21,2.69,2.69
				S86.59,62.4,85.11,62.4z"/>
		</g>
	</g>
</g>
</svg>
