<?xml version="1.0" encoding="utf-8"?>
<!-- Generator: Adobe Illustrator 23.0.3, SVG Export Plug-In . SVG Version: 6.00 Build 0)  -->
<svg version="1.1" xmlns="http://www.w3.org/2000/svg" xmlns:xlink="http://www.w3.org/1999/xlink" x="0px" y="0px"
	 viewBox="0 0 100 100" style="enable-background:new 0 0 100 100;" xml:space="preserve">
<style type="text/css">
	.st0{display:none;}
	.st1{display:inline;}
</style>
<g id="Layer_1">
	<g>
		<path d="M73.65,12.6h-48.1c-0.41,0-0.74,0.32-0.75,0.73c0,0.04,0,0.08,0.01,0.11v69.49c0,0.43,0.32,0.79,0.74,0.85h48.1
			c0.43-0.05,0.74-0.42,0.74-0.85V13.45c0.06-0.41-0.22-0.78-0.63-0.84C73.72,12.6,73.69,12.6,73.65,12.6z M26.4,22.56h46.4v53.71
			H26.4V22.56z M72.8,14.29v6.57H26.4v-6.57H72.8z M26.4,82.09v-4.13h46.4v4.13H26.4z"/>
		<path d="M18.98,21.71h-7.42c-0.47,0-0.85-0.38-0.85-0.85c0-0.47,0.38-0.85,0.85-0.85h7.42c0.47,0,0.85,0.38,0.85,0.85
			C19.83,21.33,19.45,21.71,18.98,21.71z"/>
		<path d="M18.98,43.21h-7.42c-0.47,0-0.85-0.38-0.85-0.85c0-0.47,0.38-0.85,0.85-0.85h7.42c0.47,0,0.85,0.38,0.85,0.85
			C19.83,42.84,19.45,43.21,18.98,43.21z"/>
		<path d="M18.98,34.1h-5.83c-0.47,0-0.85-0.38-0.85-0.85c0.05-0.45,0.4-0.8,0.85-0.85h5.83c0.45,0.05,0.8,0.4,0.85,0.85
			C19.83,33.72,19.45,34.1,18.98,34.1z"/>
		<path d="M18.98,37.39h-0.85c-0.47,0-0.85-0.38-0.85-0.85c0.05-0.43,0.42-0.74,0.85-0.74h0.85c0.43,0,0.79,0.32,0.85,0.74
			C19.83,37.01,19.45,37.39,18.98,37.39z"/>
		<path d="M18.98,27.43H4.05c-0.43,0-0.79-0.32-0.85-0.74c0-0.47,0.38-0.85,0.85-0.85h14.94c0.47,0,0.85,0.38,0.85,0.85
			C19.78,27.11,19.41,27.43,18.98,27.43z"/>
		<path d="M18.98,49.04H15.7c-0.47,0-0.85-0.38-0.85-0.85c-0.06-0.4,0.21-0.78,0.62-0.85c0.08-0.01,0.15-0.01,0.23,0h3.28
			c0.47,0,0.85,0.38,0.85,0.85C19.78,48.64,19.43,48.99,18.98,49.04z"/>
		<circle cx="29.79" cy="17.58" r="0.85"/>
		<circle cx="33.07" cy="17.58" r="0.85"/>
		<circle cx="36.36" cy="17.58" r="0.85"/>
		<path d="M14.85,37.39h-0.85c-0.47,0-0.85-0.38-0.85-0.85c0.05-0.43,0.42-0.74,0.85-0.74h0.85c0.43,0,0.79,0.32,0.85,0.74
			C15.7,37.01,15.32,37.39,14.85,37.39z"/>
		<path d="M9.87,37.39H9.03c-0.47,0-0.85-0.38-0.85-0.85c0.05-0.43,0.42-0.74,0.85-0.74h0.85c0.43,0,0.79,0.32,0.85,0.74
			C10.72,37.01,10.34,37.39,9.87,37.39z"/>
		<path d="M18.98,30.82h-2.44c-0.47,0-0.85-0.38-0.85-0.85c0-0.47,0.38-0.85,0.85-0.85c0,0,0,0,0,0h2.44c0.47,0,0.85,0.38,0.85,0.85
			C19.83,30.44,19.45,30.82,18.98,30.82z"/>
		<path d="M14.01,30.82h-0.85c-0.47,0-0.85-0.38-0.85-0.85c0-0.47,0.38-0.85,0.85-0.85h0.85c0.47,0,0.85,0.38,0.85,0.85
			C14.85,30.44,14.48,30.82,14.01,30.82C14.01,30.82,14.01,30.82,14.01,30.82z"/>
		<path d="M10.72,30.82H8.18c-0.47,0-0.85-0.38-0.85-0.85c0-0.47,0.38-0.85,0.85-0.85h2.54c0.47,0,0.85,0.38,0.85,0.85
			C11.57,30.44,11.19,30.82,10.72,30.82z"/>
		<path d="M87.63,46.5h-7.42c-0.47,0-0.85-0.38-0.85-0.85c0,0,0,0,0,0c0.05-0.43,0.42-0.74,0.85-0.74h7.42
			c0.41-0.06,0.78,0.22,0.84,0.63c0.01,0.04,0.01,0.08,0.01,0.11c0.06,0.4-0.21,0.78-0.62,0.85C87.79,46.51,87.71,46.51,87.63,46.5z
			"/>
		<path d="M87.63,68.85h-7.42c-0.47,0-0.85-0.38-0.85-0.85v0c0.05-0.43,0.42-0.74,0.85-0.74h7.42c0.41-0.06,0.78,0.22,0.84,0.63
			c0.01,0.04,0.01,0.08,0.01,0.11c0.06,0.4-0.21,0.78-0.62,0.85C87.79,68.86,87.71,68.86,87.63,68.85z"/>
		<path d="M86.04,58.89h-5.83c-0.43,0-0.79-0.32-0.85-0.74c0-0.47,0.38-0.85,0.85-0.85l0,0h5.83c0.47,0,0.85,0.38,0.85,0.85
			c0,0,0,0,0,0C86.84,58.58,86.47,58.9,86.04,58.89z"/>
		<path d="M81.06,62.28h-0.85c-0.45-0.05-0.8-0.4-0.85-0.85c0-0.47,0.38-0.85,0.85-0.85l0,0h0.85c0.47,0,0.85,0.38,0.85,0.85
			c0,0,0,0,0,0C81.86,61.88,81.51,62.24,81.06,62.28z"/>
		<path d="M95.15,52.33H80.22c-0.47,0-0.85-0.38-0.85-0.85c0-0.47,0.38-0.85,0.85-0.85h14.94c0.47,0,0.85,0.38,0.85,0.85
			C96,51.95,95.62,52.32,95.15,52.33z"/>
		<path d="M83.5,74.68h-3.28c-0.47,0-0.85-0.38-0.85-0.85c0-0.47,0.38-0.85,0.85-0.85c0,0,0,0,0,0h3.28c0.47,0,0.85,0.38,0.85,0.85
			C84.35,74.3,83.97,74.68,83.5,74.68z"/>
		<path d="M86.89,62.28h-2.54c-0.45-0.05-0.8-0.4-0.85-0.85c0-0.47,0.38-0.85,0.85-0.85l0,0h2.54c0.41,0,0.74,0.32,0.75,0.73
			c0,0.04,0,0.08-0.01,0.11C87.64,61.87,87.32,62.23,86.89,62.28z"/>
		<path d="M90.17,62.28h-0.85c-0.45-0.05-0.8-0.4-0.85-0.85c0-0.47,0.38-0.85,0.85-0.85l0,0h0.85c0.47,0,0.85,0.38,0.85,0.85
			c0,0,0,0,0,0C90.97,61.88,90.62,62.24,90.17,62.28z"/>
		<path d="M81.06,55.61h-0.85c-0.47,0-0.85-0.38-0.85-0.85c0,0,0,0,0,0c0.05-0.45,0.4-0.8,0.85-0.85h0.85
			c0.45,0.05,0.8,0.4,0.85,0.85C81.91,55.23,81.53,55.61,81.06,55.61L81.06,55.61z"/>
		<path d="M86.89,55.61h-2.54c-0.47,0-0.85-0.38-0.85-0.85c0,0,0,0,0,0c0.05-0.45,0.4-0.8,0.85-0.85h2.54
			c0.43,0.05,0.74,0.42,0.74,0.85c0.06,0.41-0.22,0.78-0.63,0.84C86.97,55.61,86.93,55.61,86.89,55.61z"/>
		<path d="M91.76,55.61h-2.44c-0.47,0-0.85-0.38-0.85-0.85c0,0,0,0,0,0c0.05-0.45,0.4-0.8,0.85-0.85h2.44
			c0.47,0,0.85,0.38,0.85,0.85c0,0,0,0,0,0c0.06,0.4-0.21,0.78-0.62,0.85C91.92,55.62,91.84,55.62,91.76,55.61z"/>
		<path d="M46.32,60.59H46c-0.4-0.19-0.62-0.63-0.53-1.06l6.67-19.92c0.15-0.43,0.62-0.67,1.06-0.53c0.4,0.19,0.62,0.63,0.53,1.06
			l-6.67,19.92C46.93,60.36,46.65,60.57,46.32,60.59z"/>
		<path d="M58.71,55.61l-0.64-0.21c-0.31-0.33-0.31-0.84,0-1.17l5.3-5.19l-5.3-5.3c-0.4-0.24-0.52-0.77-0.28-1.17
			c0.24-0.4,0.77-0.52,1.17-0.28c0.11,0.07,0.21,0.17,0.28,0.28l5.83,5.83c0.31,0.33,0.31,0.84,0,1.17l-5.83,5.83L58.71,55.61z"/>
		<path d="M40.49,55.61l-0.53-0.21l-5.83-5.83c-0.31-0.33-0.31-0.84,0-1.17l5.83-5.83c0.24-0.4,0.77-0.52,1.17-0.28
			s0.52,0.77,0.28,1.17c-0.07,0.11-0.17,0.21-0.28,0.28l-5.3,5.3l5.3,5.19c0.31,0.33,0.31,0.84,0,1.17L40.49,55.61z"/>
		<path d="M82.55,41.94c-1.29,0-2.33-1.04-2.33-2.33c0-0.04,0-0.07,0-0.11v-2.54c0-0.53-0.21-0.95-0.74-0.95v-1.06
			c0.53,0,0.74-0.53,0.74-1.06v-2.54c0-1.29,1.04-2.33,2.33-2.33h0.85v1.27h-0.85c-0.53,0-0.96,0.42-0.96,0.95
			c0,0.04,0,0.07,0.01,0.11v2.75c0.06,0.54-0.19,1.07-0.64,1.38c0.45,0.25,0.7,0.76,0.64,1.27v2.75c-0.06,0.58,0.36,1.1,0.94,1.16
			c0,0,0.01,0,0.01,0h0.85v1.27L82.55,41.94z"/>
		<path d="M88.59,41.94v-1.27h0.85c0.58-0.06,1.01-0.57,0.95-1.15c0,0,0-0.01,0-0.01v-2.75c-0.09-0.55,0.22-1.08,0.74-1.27
			c-0.51-0.26-0.8-0.81-0.74-1.38v-2.75c0.06-0.52-0.32-0.99-0.84-1.05c-0.04,0-0.07-0.01-0.11-0.01h-0.85v-1.27h0.85
			c1.23-0.06,2.27,0.89,2.33,2.11c0,0.07,0,0.14,0,0.22v2.54c0,0.53,0.21,1.06,0.74,1.06v1.06c-0.53,0-0.74,0.42-0.74,0.95v2.54
			c0.06,1.29-0.94,2.38-2.22,2.43c-0.04,0-0.07,0-0.11,0L88.59,41.94z"/>
	</g>
	<text transform="matrix(1 0 0 1 -3 112.3885)" style="font-family:'HelveticaNeue-Bold'; font-size:5px;">Created by Beautifulife Studio</text>
	<text transform="matrix(1 0 0 1 -3 117.3885)" style="font-family:'HelveticaNeue-Bold'; font-size:5px;">from the Noun Project</text>
</g>
<g id="Layer_2" class="st0">
	<g class="st1">
		<g>
			<path d="M75.4,34.32c1.74,0,3.16-1.42,3.16-3.16c0-1.74-1.42-3.17-3.16-3.17c-1.74,0-3.16,1.42-3.16,3.17
				C72.23,32.9,73.65,34.32,75.4,34.32z M75.4,29.45c0.94,0,1.7,0.76,1.7,1.7s-0.76,1.7-1.7,1.7c-0.94,0-1.7-0.76-1.7-1.7
				S74.46,29.45,75.4,29.45z"/>
		</g>
		<g>
			<path d="M67.02,34.32c1.74,0,3.16-1.42,3.16-3.16c0-1.74-1.42-3.17-3.16-3.17c-1.74,0-3.17,1.42-3.17,3.17
				C63.86,32.9,65.28,34.32,67.02,34.32z M67.02,29.45c0.94,0,1.7,0.76,1.7,1.7s-0.76,1.7-1.7,1.7c-0.94,0-1.7-0.76-1.7-1.7
				S66.08,29.45,67.02,29.45z"/>
		</g>
		<g>
			<path d="M34.43,33.98h26.21c0.4,0,0.73-0.33,0.73-0.73c0-0.4-0.33-0.73-0.73-0.73H34.43c-0.4,0-0.73,0.33-0.73,0.73
				C33.7,33.66,34.03,33.98,34.43,33.98z"/>
		</g>
		<g>
			<path d="M34.52,29.78h26.21c0.4,0,0.73-0.33,0.73-0.73s-0.33-0.73-0.73-0.73H34.52c-0.4,0-0.73,0.33-0.73,0.73
				S34.11,29.78,34.52,29.78z"/>
		</g>
		<g>
			<path d="M30.21,34.32c0.4,0,0.73-0.33,0.73-0.73v-4.53c0-0.4-0.33-0.73-0.73-0.73s-0.73,0.33-0.73,0.73v4.53
				C29.48,33.99,29.8,34.32,30.21,34.32z"/>
		</g>
		<g>
			<path d="M25.72,34.32c0.4,0,0.73-0.33,0.73-0.73v-4.53c0-0.4-0.33-0.73-0.73-0.73s-0.73,0.33-0.73,0.73v4.53
				C24.99,33.99,25.31,34.32,25.72,34.32z"/>
		</g>
		<g>
			<path d="M21.23,28.32c-0.4,0-0.73,0.33-0.73,0.73v4.53c0,0.4,0.33,0.73,0.73,0.73c0.4,0,0.73-0.33,0.73-0.73v-4.53
				C21.96,28.65,21.63,28.32,21.23,28.32z"/>
		</g>
		<g>
			<path d="M72.23,49.28c0,1.74,1.42,3.16,3.16,3.16c1.74,0,3.16-1.42,3.16-3.16s-1.42-3.16-3.16-3.16
				C73.65,46.12,72.23,47.54,72.23,49.28z M75.4,50.99c-0.94,0-1.7-0.76-1.7-1.7c0-0.94,0.76-1.7,1.7-1.7
				C77.65,47.58,77.65,50.99,75.4,50.99z"/>
		</g>
		<g>
			<path d="M67.02,46.12c-1.74,0-3.17,1.42-3.17,3.16s1.42,3.16,3.17,3.16c1.74,0,3.16-1.42,3.16-3.16S68.77,46.12,67.02,46.12z
				 M67.02,50.99c-0.94,0-1.7-0.76-1.7-1.7c0-0.94,0.76-1.7,1.7-1.7c0.94,0,1.7,0.76,1.7,1.7C68.72,50.22,67.96,50.99,67.02,50.99z"
				/>
		</g>
		<g>
			<path d="M60.64,50.65H34.43c-0.4,0-0.73,0.33-0.73,0.73c0,0.4,0.33,0.73,0.73,0.73h26.21c0.4,0,0.73-0.33,0.73-0.73
				C61.38,50.98,61.05,50.65,60.64,50.65z"/>
		</g>
		<g>
			<path d="M60.73,46.45H34.52c-0.4,0-0.73,0.33-0.73,0.73c0,0.4,0.33,0.73,0.73,0.73h26.21c0.4,0,0.73-0.33,0.73-0.73
				C61.46,46.78,61.14,46.45,60.73,46.45z"/>
		</g>
		<g>
			<path d="M30.21,46.45c-0.4,0-0.73,0.33-0.73,0.73v4.53c0,0.4,0.33,0.73,0.73,0.73s0.73-0.33,0.73-0.73v-4.53
				C30.94,46.78,30.61,46.45,30.21,46.45z"/>
		</g>
		<g>
			<path d="M25.72,46.45c-0.4,0-0.73,0.33-0.73,0.73v4.53c0,0.4,0.33,0.73,0.73,0.73s0.73-0.33,0.73-0.73v-4.53
				C26.45,46.78,26.12,46.45,25.72,46.45z"/>
		</g>
		<g>
			<path d="M21.23,46.45c-0.4,0-0.73,0.33-0.73,0.73v4.53c0,0.4,0.33,0.73,0.73,0.73c0.4,0,0.73-0.33,0.73-0.73v-4.53
				C21.96,46.78,21.63,46.45,21.23,46.45z"/>
		</g>
		<g>
			<path d="M72.23,67.41c0,1.74,1.42,3.16,3.16,3.16c1.74,0,3.16-1.42,3.16-3.16c0-1.74-1.42-3.16-3.16-3.16
				C73.65,64.25,72.23,65.67,72.23,67.41z M77.1,67.41c0,0.94-0.76,1.7-1.7,1.7c-0.94,0-1.7-0.76-1.7-1.7c0-0.94,0.76-1.7,1.7-1.7
				C76.33,65.71,77.1,66.47,77.1,67.41z"/>
		</g>
		<g>
			<path d="M67.02,64.25c-1.74,0-3.17,1.42-3.17,3.16c0,1.74,1.42,3.16,3.17,3.16c1.74,0,3.16-1.42,3.16-3.16
				C70.18,65.67,68.77,64.25,67.02,64.25z M67.02,69.11c-0.94,0-1.7-0.76-1.7-1.7c0-0.94,0.76-1.7,1.7-1.7c0.94,0,1.7,0.76,1.7,1.7
				C68.72,68.35,67.96,69.11,67.02,69.11z"/>
		</g>
		<g>
			<path d="M60.64,68.78H34.43c-0.4,0-0.73,0.33-0.73,0.73c0,0.4,0.33,0.73,0.73,0.73h26.21c0.4,0,0.73-0.33,0.73-0.73
				C61.38,69.11,61.05,68.78,60.64,68.78z"/>
		</g>
		<g>
			<path d="M60.73,64.58H34.52c-0.4,0-0.73,0.33-0.73,0.73s0.33,0.73,0.73,0.73h26.21c0.4,0,0.73-0.33,0.73-0.73
				S61.14,64.58,60.73,64.58z"/>
		</g>
		<g>
			<path d="M30.21,64.58c-0.4,0-0.73,0.33-0.73,0.73v4.53c0,0.4,0.33,0.73,0.73,0.73s0.73-0.33,0.73-0.73v-4.53
				C30.94,64.91,30.61,64.58,30.21,64.58z"/>
		</g>
		<g>
			<path d="M25.72,64.58c-0.4,0-0.73,0.33-0.73,0.73v4.53c0,0.4,0.33,0.73,0.73,0.73s0.73-0.33,0.73-0.73v-4.53
				C26.45,64.91,26.12,64.58,25.72,64.58z"/>
		</g>
		<g>
			<path d="M21.23,64.58c-0.4,0-0.73,0.33-0.73,0.73v4.53c0,0.4,0.33,0.73,0.73,0.73c0.4,0,0.73-0.33,0.73-0.73v-4.53
				C21.96,64.91,21.63,64.58,21.23,64.58z"/>
		</g>
		<g>
			<path d="M84.16,7.51c-0.4,0-0.73,0.33-0.73,0.73v0.43c0,0.4,0.33,0.73,0.73,0.73s0.73-0.33,0.73-0.73V8.24
				C84.89,7.84,84.57,7.51,84.16,7.51z"/>
		</g>
		<g>
			<path d="M87.55,10.08c-0.4,0-0.73,0.33-0.73,0.73v0.43c0,0.4,0.33,0.73,0.73,0.73c0.4,0,0.73-0.33,0.73-0.73v-0.43
				C88.28,10.41,87.96,10.08,87.55,10.08z"/>
		</g>
		<g>
			<path d="M14.9,9.4c0.4,0,0.73-0.33,0.73-0.73V8.24c0-0.4-0.33-0.73-0.73-0.73s-0.73,0.33-0.73,0.73v0.43
				C14.16,9.08,14.49,9.4,14.9,9.4z"/>
		</g>
		<g>
			<path d="M11.5,11.97c0.4,0,0.73-0.33,0.73-0.73v-0.43c0-0.4-0.33-0.73-0.73-0.73s-0.73,0.33-0.73,0.73v0.43
				C10.77,11.64,11.1,11.97,11.5,11.97z"/>
		</g>
		<g>
			<path d="M84.16,89.68c-0.4,0-0.73,0.33-0.73,0.73v0.43c0,0.4,0.33,0.73,0.73,0.73s0.73-0.33,0.73-0.73v-0.43
				C84.89,90,84.57,89.68,84.16,89.68z"/>
		</g>
		<g>
			<path d="M87.55,87.11c-0.4,0-0.73,0.33-0.73,0.73v0.43c0,0.4,0.33,0.73,0.73,0.73c0.4,0,0.73-0.33,0.73-0.73v-0.43
				C88.28,87.44,87.96,87.11,87.55,87.11z"/>
		</g>
		<g>
			<path d="M14.9,91.56c0.4,0,0.73-0.33,0.73-0.73v-0.43c0-0.4-0.33-0.73-0.73-0.73s-0.73,0.33-0.73,0.73v0.43
				C14.16,91.24,14.49,91.56,14.9,91.56z"/>
		</g>
		<g>
			<path d="M11.5,89c0.4,0,0.73-0.33,0.73-0.73v-0.43c0-0.4-0.33-0.73-0.73-0.73s-0.73,0.33-0.73,0.73v0.43
				C10.77,88.67,11.1,89,11.5,89z"/>
		</g>
		<g>
			<path d="M92.99,62.08v-9.44c0-0.4-0.33-0.73-0.73-0.73H82.14v-5.25h10.12c0.4,0,0.73-0.33,0.73-0.73v-9.44
				c2.27-0.35,4.01-2.31,4.01-4.68c0-2.61-2.13-4.74-4.74-4.74s-4.74,2.13-4.74,4.74c0,2.37,1.74,4.33,4.01,4.68v8.71h-9.39
				c-0.16-1.67,0.45-3.41-0.73-3.41h-4.64v-3.14h4.64c0.4,0,0.73-0.33,0.73-0.73V24.39c0-0.4-0.33-0.73-0.73-0.73H59.79V10.47h20.98
				v3.63c0,0.4,0.33,0.73,0.73,0.73h8.72c0.4,0,0.73-0.33,0.73-0.73V5.38c0-0.4-0.33-0.73-0.73-0.73H81.5
				c-0.4,0-0.73,0.33-0.73,0.73v3.63H59.06c-0.4,0-0.73,0.33-0.73,0.73v13.92h-17.6V9.74c0-0.4-0.33-0.73-0.73-0.73H18.29V5.38
				c0-0.4-0.33-0.73-0.73-0.73H8.84c-0.4,0-0.73,0.33-0.73,0.73v8.72c0,0.4,0.33,0.73,0.73,0.73h8.72c0.4,0,0.73-0.33,0.73-0.73
				v-3.63h20.98v13.19H17.65c-0.4,0-0.73,0.33-0.73,0.73v13.53c0,0.4,0.33,0.73,0.73,0.73h4.64v3.14h-4.64
				c-0.4,0-0.73,0.33-0.73,0.73v2.68H7.47v-8.71c2.27-0.35,4.01-2.31,4.01-4.68c0-2.61-2.13-4.74-4.74-4.74S2,29.19,2,31.81
				c0,2.37,1.74,4.33,4.01,4.68C6.28,45,5.41,46.66,6.74,46.66h10.18v5.25C7.66,52.19,6.01,51.3,6.01,52.64v9.44
				C3.74,62.43,2,64.39,2,66.76c0,2.61,2.13,4.74,4.74,4.74s4.74-2.13,4.74-4.74c0-2.37-1.74-4.33-4.01-4.68v-8.71h9.45v2.68
				c0,0.4,0.33,0.73,0.73,0.73h4.64v3.14h-4.64c-0.4,0-0.73,0.33-0.73,0.73v13.53c0,0.4,0.33,0.73,0.73,0.73h21.62v13.7H18.29v-3.63
				c0-0.4-0.33-0.73-0.73-0.73H8.84c-0.4,0-0.73,0.33-0.73,0.73v8.72c0,0.4,0.33,0.73,0.73,0.73h8.72c0.4,0,0.73-0.33,0.73-0.73
				v-3.63H40c0.4,0,0.73-0.33,0.73-0.73V74.91h17.6v14.43c0,0.4,0.33,0.73,0.73,0.73h21.71v3.63c0,0.4,0.33,0.73,0.73,0.73h8.72
				c0.4,0,0.73-0.33,0.73-0.73v-8.72c0-0.4-0.33-0.73-0.73-0.73H81.5c-0.4,0-0.73,0.33-0.73,0.73v3.63H59.79v-13.7h21.62
				c0.4,0,0.73-0.33,0.73-0.73c-0.29-12.61,0.65-14.26-0.73-14.26h-4.64v-3.14h4.64c1.19,0,0.58-1.8,0.73-3.41h9.39v8.71
				c-2.27,0.35-4.01,2.31-4.01,4.68c0,2.61,2.13,4.74,4.74,4.74S97,69.37,97,66.76C97,64.39,95.26,62.43,92.99,62.08z M88.98,31.81
				c0-1.81,1.47-3.28,3.28-3.28s3.28,1.47,3.28,3.28s-1.47,3.28-3.28,3.28S88.98,33.62,88.98,31.81z M82.23,6.11h7.25v7.26h-7.25
				V6.11z M16.83,13.37H9.57V6.11h7.25V13.37z M3.46,31.81c0-1.81,1.47-3.28,3.28-3.28s3.28,1.47,3.28,3.28s-1.47,3.28-3.28,3.28
				S3.46,33.62,3.46,31.81z M10.02,66.76c0,1.81-1.47,3.28-3.28,3.28s-3.28-1.47-3.28-3.28c0-1.81,1.47-3.28,3.28-3.28
				S10.02,64.95,10.02,66.76z M16.83,92.97H9.57v-7.26h7.25V92.97z M82.23,85.71h7.25v7.26h-7.25V85.71z M18.38,25.12h62.3v12.07
				h-62.3V25.12z M23.75,38.65h51.56v3.14H23.75V38.65z M80.68,73.45h-62.3V61.38h62.3V73.45z M75.31,59.92H23.75v-3.14h51.56V59.92
				z M80.68,55.32h-62.3V43.25h62.3V55.32z M92.26,70.04c-1.81,0-3.28-1.47-3.28-3.28c0-1.81,1.47-3.28,3.28-3.28
				s3.28,1.47,3.28,3.28C95.54,68.57,94.07,70.04,92.26,70.04z"/>
		</g>
	</g>
</g>
</svg>
