<?xml version="1.0" encoding="utf-8"?>
<!-- Generator: Adobe Illustrator 23.0.3, SVG Export Plug-In . SVG Version: 6.00 Build 0)  -->
<svg version="1.1" id="Layer_1" xmlns="http://www.w3.org/2000/svg" xmlns:xlink="http://www.w3.org/1999/xlink" x="0px" y="0px"
	 viewBox="0 0 150 149" style="enable-background:new 0 0 150 149;" xml:space="preserve">
<g>
	<g>
		<path d="M110.4,54.2c2.4,0,4.3-1.9,4.3-4.3s-1.9-4.3-4.3-4.3s-4.3,1.9-4.3,4.3S108,54.2,110.4,54.2z M110.4,47.5
			c1.3,0,2.3,1,2.3,2.3s-1,2.3-2.3,2.3s-2.3-1-2.3-2.3S109.2,47.5,110.4,47.5z"/>
	</g>
	<g>
		<path d="M99,54.2c2.4,0,4.3-1.9,4.3-4.3s-1.9-4.3-4.3-4.3s-4.3,1.9-4.3,4.3S96.6,54.2,99,54.2z M99,47.5c1.3,0,2.3,1,2.3,2.3
			s-1,2.3-2.3,2.3s-2.3-1-2.3-2.3S97.7,47.5,99,47.5z"/>
	</g>
	<g>
		<path d="M54.4,53.7h35.9c0.6,0,1-0.4,1-1s-0.4-1-1-1H54.4c-0.6,0-1,0.4-1,1S53.8,53.7,54.4,53.7z"/>
	</g>
	<g>
		<path d="M54.5,48h35.9c0.6,0,1-0.4,1-1s-0.4-1-1-1H54.5c-0.6,0-1,0.4-1,1S53.9,48,54.5,48z"/>
	</g>
	<g>
		<path d="M48.6,54.2c0.6,0,1-0.4,1-1V47c0-0.6-0.4-1-1-1s-1,0.4-1,1v6.2C47.6,53.7,48,54.2,48.6,54.2z"/>
	</g>
	<g>
		<path d="M42.5,54.2c0.6,0,1-0.4,1-1V47c0-0.6-0.4-1-1-1s-1,0.4-1,1v6.2C41.5,53.7,41.9,54.2,42.5,54.2z"/>
	</g>
	<g>
		<path d="M36.3,46c-0.6,0-1,0.4-1,1v6.2c0,0.6,0.4,1,1,1c0.6,0,1-0.4,1-1V47C37.3,46.4,36.9,46,36.3,46z"/>
	</g>
	<g>
		<path d="M106.1,74.6c0,2.4,1.9,4.3,4.3,4.3s4.3-1.9,4.3-4.3s-1.9-4.3-4.3-4.3S106.1,72.3,106.1,74.6z M110.4,77
			c-1.3,0-2.3-1-2.3-2.3s1-2.3,2.3-2.3C113.5,72.3,113.5,77,110.4,77z"/>
	</g>
	<g>
		<path d="M99,70.3c-2.4,0-4.3,1.9-4.3,4.3S96.6,79,99,79s4.3-1.9,4.3-4.3S101.4,70.3,99,70.3z M99,77c-1.3,0-2.3-1-2.3-2.3
			s1-2.3,2.3-2.3s2.3,1,2.3,2.3S100.3,77,99,77z"/>
	</g>
	<g>
		<path d="M90.2,76.5H54.4c-0.6,0-1,0.4-1,1s0.4,1,1,1h35.9c0.6,0,1-0.4,1-1S90.8,76.5,90.2,76.5z"/>
	</g>
	<g>
		<path d="M90.4,70.8H54.5c-0.6,0-1,0.4-1,1s0.4,1,1,1h35.9c0.6,0,1-0.4,1-1S90.9,70.8,90.4,70.8z"/>
	</g>
	<g>
		<path d="M48.6,70.8c-0.6,0-1,0.4-1,1V78c0,0.6,0.4,1,1,1s1-0.4,1-1v-6.2C49.6,71.2,49.2,70.8,48.6,70.8z"/>
	</g>
	<g>
		<path d="M42.5,70.8c-0.6,0-1,0.4-1,1V78c0,0.6,0.4,1,1,1s1-0.4,1-1v-6.2C43.5,71.2,43,70.8,42.5,70.8z"/>
	</g>
	<g>
		<path d="M36.3,70.8c-0.6,0-1,0.4-1,1V78c0,0.6,0.4,1,1,1c0.6,0,1-0.4,1-1v-6.2C37.3,71.2,36.9,70.8,36.3,70.8z"/>
	</g>
	<g>
		<path d="M106.1,99.5c0,2.4,1.9,4.3,4.3,4.3s4.3-1.9,4.3-4.3s-1.9-4.3-4.3-4.3S106.1,97.1,106.1,99.5z M112.8,99.5
			c0,1.3-1,2.3-2.3,2.3s-2.3-1-2.3-2.3s1-2.3,2.3-2.3S112.8,98.2,112.8,99.5z"/>
	</g>
	<g>
		<path d="M99,95.1c-2.4,0-4.3,1.9-4.3,4.3s1.9,4.3,4.3,4.3s4.3-1.9,4.3-4.3S101.4,95.1,99,95.1z M99,101.8c-1.3,0-2.3-1-2.3-2.3
			s1-2.3,2.3-2.3s2.3,1,2.3,2.3S100.3,101.8,99,101.8z"/>
	</g>
	<g>
		<path d="M90.2,101.3H54.4c-0.6,0-1,0.4-1,1s0.4,1,1,1h35.9c0.6,0,1-0.4,1-1S90.8,101.3,90.2,101.3z"/>
	</g>
	<g>
		<path d="M90.4,95.6H54.5c-0.6,0-1,0.4-1,1s0.4,1,1,1h35.9c0.6,0,1-0.4,1-1S90.9,95.6,90.4,95.6z"/>
	</g>
	<g>
		<path d="M48.6,95.6c-0.6,0-1,0.4-1,1v6.2c0,0.6,0.4,1,1,1s1-0.4,1-1v-6.2C49.6,96,49.2,95.6,48.6,95.6z"/>
	</g>
	<g>
		<path d="M42.5,95.6c-0.6,0-1,0.4-1,1v6.2c0,0.6,0.4,1,1,1s1-0.4,1-1v-6.2C43.5,96,43,95.6,42.5,95.6z"/>
	</g>
	<g>
		<path d="M36.3,95.6c-0.6,0-1,0.4-1,1v6.2c0,0.6,0.4,1,1,1c0.6,0,1-0.4,1-1v-6.2C37.3,96,36.9,95.6,36.3,95.6z"/>
	</g>
	<g>
		<path d="M122.4,17.5c-0.6,0-1,0.4-1,1v0.6c0,0.6,0.4,1,1,1s1-0.4,1-1v-0.6C123.4,17.9,123,17.5,122.4,17.5z"/>
	</g>
	<g>
		<path d="M127.1,21c-0.6,0-1,0.4-1,1v0.6c0,0.6,0.4,1,1,1s1-0.4,1-1V22C128.1,21.5,127.6,21,127.1,21z"/>
	</g>
	<g>
		<path d="M27.6,20.1c0.6,0,1-0.4,1-1v-0.6c0-0.6-0.4-1-1-1s-1,0.4-1,1v0.6C26.6,19.6,27.1,20.1,27.6,20.1z"/>
	</g>
	<g>
		<path d="M23,23.6c0.6,0,1-0.4,1-1V22c0-0.6-0.4-1-1-1s-1,0.4-1,1v0.6C22,23.1,22.5,23.6,23,23.6z"/>
	</g>
	<g>
		<path d="M122.4,129.9c-0.6,0-1,0.4-1,1v0.6c0,0.6,0.4,1,1,1s1-0.4,1-1v-0.6C123.4,130.4,123,129.9,122.4,129.9z"/>
	</g>
	<g>
		<path d="M127.1,126.4c-0.6,0-1,0.4-1,1v0.6c0,0.6,0.4,1,1,1s1-0.4,1-1v-0.6C128.1,126.9,127.6,126.4,127.1,126.4z"/>
	</g>
	<g>
		<path d="M27.6,132.5c0.6,0,1-0.4,1-1v-0.6c0-0.6-0.4-1-1-1s-1,0.4-1,1v0.6C26.6,132.1,27.1,132.5,27.6,132.5z"/>
	</g>
	<g>
		<path d="M23,129c0.6,0,1-0.4,1-1v-0.6c0-0.6-0.4-1-1-1s-1,0.4-1,1v0.6C22,128.5,22.5,129,23,129z"/>
	</g>
	<g>
		<path d="M134.5,92.2V79.2c0-0.6-0.4-1-1-1h-13.8v-7.2h13.8c0.6,0,1-0.4,1-1V57.1c3.1-0.5,5.5-3.2,5.5-6.4c0-3.6-2.9-6.5-6.5-6.5
			s-6.5,2.9-6.5,6.5c0,3.2,2.4,5.9,5.5,6.4v11.9h-12.8c-0.2-2.3,0.6-4.7-1-4.7h-6.4v-4.3h6.4c0.6,0,1-0.4,1-1V40.6c0-0.6-0.4-1-1-1
			H89.1v-18h28.7v5c0,0.6,0.4,1,1,1h11.9c0.6,0,1-0.4,1-1V14.6c0-0.6-0.4-1-1-1h-11.9c-0.6,0-1,0.4-1,1v5H88.1c-0.6,0-1,0.4-1,1v19
			H63v-19c0-0.6-0.4-1-1-1H32.3v-5c0-0.6-0.4-1-1-1H19.4c-0.6,0-1,0.4-1,1v11.9c0,0.6,0.4,1,1,1h11.9c0.6,0,1-0.4,1-1v-5H61v18H31.4
			c-0.6,0-1,0.4-1,1v18.5c0,0.6,0.4,1,1,1h6.4v4.3h-6.4c-0.6,0-1,0.4-1,1v3.7H17.5V57.1c3.1-0.5,5.5-3.2,5.5-6.4
			c0-3.6-2.9-6.5-6.5-6.5S10,47.2,10,50.7c0,3.2,2.4,5.9,5.5,6.4c0.4,11.6-0.8,13.9,1,13.9h13.9v7.2c-12.7,0.4-14.9-0.8-14.9,1v12.9
			c-3.1,0.5-5.5,3.2-5.5,6.4c0,3.6,2.9,6.5,6.5,6.5s6.5-2.9,6.5-6.5c0-3.2-2.4-5.9-5.5-6.4V80.2h12.9v3.7c0,0.6,0.4,1,1,1h6.4v4.3
			h-6.4c-0.6,0-1,0.4-1,1v18.5c0,0.6,0.4,1,1,1H61v18.7H32.3v-5c0-0.6-0.4-1-1-1H19.4c-0.6,0-1,0.4-1,1v11.9c0,0.6,0.4,1,1,1h11.9
			c0.6,0,1-0.4,1-1v-5H62c0.6,0,1-0.4,1-1v-19.7h24.1v19.7c0,0.6,0.4,1,1,1h29.7v5c0,0.6,0.4,1,1,1h11.9c0.6,0,1-0.4,1-1v-11.9
			c0-0.6-0.4-1-1-1h-11.9c-0.6,0-1,0.4-1,1v5H89.1v-18.7h29.6c0.6,0,1-0.4,1-1c-0.4-17.3,0.9-19.5-1-19.5h-6.4v-4.3h6.4
			c1.6,0,0.8-2.5,1-4.7h12.8v11.9c-3.1,0.5-5.5,3.2-5.5,6.4c0,3.6,2.9,6.5,6.5,6.5s6.5-2.9,6.5-6.5C140,95.3,137.6,92.6,134.5,92.2z
			 M129,50.7c0-2.5,2-4.5,4.5-4.5s4.5,2,4.5,4.5s-2,4.5-4.5,4.5S129,53.2,129,50.7z M119.8,15.6h9.9v9.9h-9.9V15.6z M30.3,25.5h-9.9
			v-9.9h9.9V25.5z M12,50.7c0-2.5,2-4.5,4.5-4.5s4.5,2,4.5,4.5s-2,4.5-4.5,4.5S12,53.2,12,50.7z M21,98.6c0,2.5-2,4.5-4.5,4.5
			s-4.5-2-4.5-4.5s2-4.5,4.5-4.5S21,96.1,21,98.6z M30.3,134.4h-9.9v-9.9h9.9V134.4z M119.8,124.5h9.9v9.9h-9.9V124.5z M32.4,41.6
			h85.3v16.5H32.4V41.6z M39.8,60.1h70.6v4.3H39.8V60.1z M117.7,107.7H32.4V91.2h85.3V107.7z M110.3,89.2H39.8v-4.3h70.6V89.2z
			 M117.7,82.9H32.4V66.4h85.3V82.9z M133.5,103.1c-2.5,0-4.5-2-4.5-4.5s2-4.5,4.5-4.5s4.5,2,4.5,4.5S136,103.1,133.5,103.1z"/>
	</g>
</g>
<text transform="matrix(1 0 0 1 0 165)" style="font-family:'HelveticaNeue-Bold'; font-size:5px;">Created by Dinosoft Labs</text>
<text transform="matrix(1 0 0 1 0 170)" style="font-family:'HelveticaNeue-Bold'; font-size:5px;">from the Noun Project</text>
</svg>
