<?xml version="1.0" encoding="utf-8"?>
<!-- Generator: Adobe Illustrator 23.0.3, SVG Export Plug-In . SVG Version: 6.00 Build 0)  -->
<svg version="1.1" id="Layer_1" xmlns="http://www.w3.org/2000/svg" xmlns:xlink="http://www.w3.org/1999/xlink" x="0px" y="0px"
	 viewBox="0 0 100 79.8" style="enable-background:new 0 0 100 79.8;" xml:space="preserve">
<title>icon-Front End Development</title>
<g>
	<path d="M72.7,6.6H27.3c-0.4,0-0.7,0.3-0.7,0.7c0,0,0,0.1,0,0.1V73c0,0.4,0.3,0.7,0.7,0.8h45.4c0.4-0.1,0.7-0.4,0.7-0.8V7.4
		c0.1-0.4-0.2-0.7-0.6-0.8C72.8,6.6,72.7,6.6,72.7,6.6z M28.1,16h43.8v50.7H28.1V16z M71.9,8.2v6.2H28.1V8.2H71.9z M28.1,72.2v-3.9
		h43.8v3.9H28.1z"/>
	<path d="M21.1,15.2h-7c-0.4,0-0.8-0.4-0.8-0.8c0-0.4,0.4-0.8,0.8-0.8h7c0.4,0,0.8,0.4,0.8,0.8C21.9,14.8,21.5,15.2,21.1,15.2z"/>
	<path d="M21.1,35.5h-7c-0.4,0-0.8-0.4-0.8-0.8c0-0.4,0.4-0.8,0.8-0.8h7c0.4,0,0.8,0.4,0.8,0.8C21.9,35.1,21.5,35.5,21.1,35.5z"/>
	<path d="M21.1,26.9h-5.5c-0.4,0-0.8-0.4-0.8-0.8c0-0.4,0.4-0.8,0.8-0.8h5.5c0.4,0,0.8,0.4,0.8,0.8C21.9,26.5,21.5,26.9,21.1,26.9z"
		/>
	<path d="M21.1,30h-0.8c-0.4,0-0.8-0.4-0.8-0.8c0.1-0.4,0.4-0.7,0.8-0.7h0.8c0.4,0,0.7,0.3,0.8,0.7C21.9,29.6,21.5,30,21.1,30z"/>
	<path d="M21.1,20.6H7c-0.4,0-0.7-0.3-0.8-0.7c0-0.4,0.4-0.8,0.8-0.8h14.1c0.4,0,0.8,0.4,0.8,0.8C21.8,20.3,21.5,20.6,21.1,20.6z"/>
	<path d="M21.1,41H18c-0.4,0-0.8-0.4-0.8-0.8c-0.1-0.4,0.2-0.7,0.6-0.8c0.1,0,0.1,0,0.2,0h3.1c0.4,0,0.8,0.4,0.8,0.8
		C21.9,40.6,21.5,40.9,21.1,41z"/>
	<circle cx="31.3" cy="11.3" r="0.8"/>
	<circle cx="34.4" cy="11.3" r="0.8"/>
	<circle cx="37.5" cy="11.3" r="0.8"/>
	<path d="M17.2,30h-0.8c-0.4,0-0.8-0.4-0.8-0.8c0.1-0.4,0.4-0.7,0.8-0.7h0.8c0.4,0,0.7,0.3,0.8,0.7C18,29.6,17.6,30,17.2,30z"/>
	<path d="M12.5,30h-0.8c-0.4,0-0.8-0.4-0.8-0.8c0.1-0.4,0.4-0.7,0.8-0.7h0.8c0.4,0,0.7,0.3,0.8,0.7C13.3,29.6,12.9,30,12.5,30z"/>
	<path d="M21.1,23.8h-2.3c-0.4,0-0.8-0.4-0.8-0.8s0.4-0.8,0.8-0.8c0,0,0,0,0,0h2.3c0.4,0,0.8,0.4,0.8,0.8
		C21.9,23.4,21.5,23.8,21.1,23.8z"/>
	<path d="M16.4,23.8h-0.8c-0.4,0-0.8-0.4-0.8-0.8c0-0.4,0.4-0.8,0.8-0.8h0.8c0.4,0,0.8,0.4,0.8,0.8S16.8,23.8,16.4,23.8
		C16.4,23.8,16.4,23.8,16.4,23.8z"/>
	<path d="M13.3,23.8h-2.4c-0.4,0-0.8-0.4-0.8-0.8c0-0.4,0.4-0.8,0.8-0.8h2.4c0.4,0,0.8,0.4,0.8,0.8C14.1,23.4,13.7,23.8,13.3,23.8z"
		/>
	<path d="M85.9,38.6h-7c-0.4,0-0.8-0.4-0.8-0.8c0,0,0,0,0,0c0.1-0.4,0.4-0.7,0.8-0.7h7c0.4-0.1,0.7,0.2,0.8,0.6c0,0,0,0.1,0,0.1
		c0.1,0.4-0.2,0.7-0.6,0.8C86,38.6,86,38.6,85.9,38.6z"/>
	<path d="M85.9,59.7h-7c-0.4,0-0.8-0.4-0.8-0.8v0c0.1-0.4,0.4-0.7,0.8-0.7h7c0.4-0.1,0.7,0.2,0.8,0.6c0,0,0,0.1,0,0.1
		c0.1,0.4-0.2,0.7-0.6,0.8C86,59.7,86,59.7,85.9,59.7z"/>
	<path d="M84.4,50.3h-5.5c-0.4,0-0.7-0.3-0.8-0.7c0-0.4,0.4-0.8,0.8-0.8l0,0h5.5c0.4,0,0.8,0.4,0.8,0.8c0,0,0,0,0,0
		C85.1,50,84.8,50.3,84.4,50.3z"/>
	<path d="M79.7,53.5h-0.8c-0.4,0-0.8-0.4-0.8-0.8c0-0.4,0.4-0.8,0.8-0.8l0,0h0.8c0.4,0,0.8,0.4,0.8,0.8c0,0,0,0,0,0
		C80.5,53.1,80.1,53.4,79.7,53.5z"/>
	<path d="M93,44.1H78.9c-0.4,0-0.8-0.4-0.8-0.8c0-0.4,0.4-0.8,0.8-0.8H93c0.4,0,0.8,0.4,0.8,0.8C93.8,43.7,93.4,44.1,93,44.1z"/>
	<path d="M82,65.2h-3.1c-0.4,0-0.8-0.4-0.8-0.8s0.4-0.8,0.8-0.8c0,0,0,0,0,0H82c0.4,0,0.8,0.4,0.8,0.8C82.8,64.8,82.4,65.2,82,65.2z
		"/>
	<path d="M85.2,53.5h-2.4c-0.4,0-0.8-0.4-0.8-0.8c0-0.4,0.4-0.8,0.8-0.8l0,0h2.4c0.4,0,0.7,0.3,0.7,0.7c0,0,0,0.1,0,0.1
		C85.9,53.1,85.6,53.4,85.2,53.5z"/>
	<path d="M88.3,53.5h-0.8c-0.4,0-0.8-0.4-0.8-0.8c0-0.4,0.4-0.8,0.8-0.8l0,0h0.8c0.4,0,0.8,0.4,0.8,0.8c0,0,0,0,0,0
		C89.1,53.1,88.7,53.4,88.3,53.5z"/>
	<path d="M79.7,47.2h-0.8c-0.4,0-0.8-0.4-0.8-0.8c0,0,0,0,0,0c0-0.4,0.4-0.8,0.8-0.8h0.8c0.4,0,0.8,0.4,0.8,0.8
		C80.5,46.8,80.1,47.2,79.7,47.2L79.7,47.2z"/>
	<path d="M85.2,47.2h-2.4c-0.4,0-0.8-0.4-0.8-0.8c0,0,0,0,0,0c0-0.4,0.4-0.8,0.8-0.8h2.4c0.4,0.1,0.7,0.4,0.7,0.8
		c0.1,0.4-0.2,0.7-0.6,0.8C85.3,47.2,85.2,47.2,85.2,47.2z"/>
	<path d="M89.8,47.2h-2.3c-0.4,0-0.8-0.4-0.8-0.8c0,0,0,0,0,0c0-0.4,0.4-0.8,0.8-0.8h2.3c0.4,0,0.8,0.4,0.8,0.8c0,0,0,0,0,0
		c0.1,0.4-0.2,0.7-0.6,0.8C89.9,47.2,89.9,47.2,89.8,47.2z"/>
	<path d="M46.9,51.9h-0.3c-0.4-0.2-0.6-0.6-0.5-1l6.3-18.8c0.1-0.4,0.6-0.6,1-0.5c0.4,0.2,0.6,0.6,0.5,1l-6.3,18.8
		C47.5,51.7,47.2,51.9,46.9,51.9z"/>
	<path d="M58.6,47.2L58,47c-0.3-0.3-0.3-0.8,0-1.1l5-4.9l-5-5c-0.4-0.2-0.5-0.7-0.3-1.1c0.2-0.4,0.7-0.5,1.1-0.3
		c0.1,0.1,0.2,0.2,0.3,0.3l5.5,5.5c0.3,0.3,0.3,0.8,0,1.1L59.1,47L58.6,47.2z"/>
	<path d="M41.4,47.2L40.9,47l-5.5-5.5c-0.3-0.3-0.3-0.8,0-1.1l5.5-5.5c0.2-0.4,0.7-0.5,1.1-0.3c0.4,0.2,0.5,0.7,0.3,1.1
		c-0.1,0.1-0.2,0.2-0.3,0.3l-5,5l5,4.9c0.3,0.3,0.3,0.8,0,1.1L41.4,47.2z"/>
	<path d="M81.1,34.3c-1.2,0-2.2-1-2.2-2.2c0,0,0-0.1,0-0.1v-2.4c0-0.5-0.2-0.9-0.7-0.9v-1c0.5,0,0.7-0.5,0.7-1v-2.4
		c0-1.2,1-2.2,2.2-2.2h0.8v1.2h-0.8c-0.5,0-0.9,0.4-0.9,0.9c0,0,0,0.1,0,0.1v2.6c0.1,0.5-0.2,1-0.6,1.3c0.4,0.2,0.7,0.7,0.6,1.2V32
		c-0.1,0.5,0.3,1,0.9,1.1c0,0,0,0,0,0h0.8v1.2L81.1,34.3z"/>
	<path d="M86.8,34.3v-1.2h0.8c0.5-0.1,1-0.5,0.9-1.1c0,0,0,0,0,0v-2.6c-0.1-0.5,0.2-1,0.7-1.2c-0.5-0.2-0.8-0.8-0.7-1.3v-2.6
		c0.1-0.5-0.3-0.9-0.8-1c0,0-0.1,0-0.1,0h-0.8v-1.2h0.8c1.2-0.1,2.1,0.8,2.2,2c0,0.1,0,0.1,0,0.2v2.4c0,0.5,0.2,1,0.7,1v1
		c-0.5,0-0.7,0.4-0.7,0.9V32c0.1,1.2-0.9,2.2-2.1,2.3c0,0-0.1,0-0.1,0L86.8,34.3z"/>
</g>
<text transform="matrix(1 0 0 1 0 104.3885)" style="font-family:'HelveticaNeue-Bold'; font-size:5px;">Created by Beautifulife Studio</text>
<text transform="matrix(1 0 0 1 0 109.3885)" style="font-family:'HelveticaNeue-Bold'; font-size:5px;">from the Noun Project</text>
</svg>
